<mxfile host="65bd71144e">
    <diagram name="Page-1" id="1VTvxivwpSPhkvNJXZJ3">
        <mxGraphModel dx="1086" dy="751" grid="1" gridSize="10" guides="1" tooltips="1" connect="1" arrows="1" fold="1" page="1" pageScale="1" pageWidth="850" pageHeight="1100" background="#ffffff" math="0" shadow="0">
            <root>
                <mxCell id="sueAwKAaTNoMhfTQWeYg-0"/>
                <mxCell id="sueAwKAaTNoMhfTQWeYg-1" parent="sueAwKAaTNoMhfTQWeYg-0"/>
                <mxCell id="sueAwKAaTNoMhfTQWeYg-2" value="http://ics2o.mths.ca" style="swimlane;whiteSpace=wrap;html=1;strokeColor=#000000;strokeWidth=1;gradientColor=none;perimeterSpacing=0;glass=0;labelBackgroundColor=none;labelBorderColor=none;" parent="sueAwKAaTNoMhfTQWeYg-1" vertex="1">
                    <mxGeometry x="40" y="40" width="760" height="610" as="geometry"/>
                </mxCell>
                <mxCell id="sueAwKAaTNoMhfTQWeYg-3" value="" style="whiteSpace=wrap;html=1;glass=0;labelBackgroundColor=none;labelBorderColor=none;fontSize=22;fillColor=#66B2FF;strokeColor=#36393d;" parent="sueAwKAaTNoMhfTQWeYg-2" vertex="1">
                    <mxGeometry y="20" width="760" height="590" as="geometry"/>
                </mxCell>
                <mxCell id="sueAwKAaTNoMhfTQWeYg-4" value="" style="whiteSpace=wrap;html=1;fontSize=22;fillColor=#0073E6;strokeColor=none;gradientColor=none;" parent="sueAwKAaTNoMhfTQWeYg-2" vertex="1">
                    <mxGeometry y="20" width="760" height="50" as="geometry"/>
                </mxCell>
                <mxCell id="sueAwKAaTNoMhfTQWeYg-8" value="&lt;span style=&quot;font-size: 24px;&quot;&gt;The weather is:&lt;/span&gt;" style="text;html=1;align=center;verticalAlign=middle;resizable=0;points=[];autosize=1;fontSize=26;fontColor=#000000;" parent="sueAwKAaTNoMhfTQWeYg-2" vertex="1">
                    <mxGeometry x="15" y="70" width="190" height="40" as="geometry"/>
                </mxCell>
                <mxCell id="sueAwKAaTNoMhfTQWeYg-14" value="The temperature is: ..." style="text;strokeColor=none;align=left;fillColor=none;html=1;verticalAlign=middle;whiteSpace=wrap;rounded=0;fontSize=18;fontColor=#000000;" parent="sueAwKAaTNoMhfTQWeYg-2" vertex="1">
                    <mxGeometry x="15" y="180" width="530" height="30" as="geometry"/>
                </mxCell>
                <mxCell id="sueAwKAaTNoMhfTQWeYg-15" value="Weather" style="text;html=1;align=center;verticalAlign=middle;resizable=0;points=[];autosize=1;fontSize=30;fontColor=#000000;" parent="sueAwKAaTNoMhfTQWeYg-2" vertex="1">
                    <mxGeometry x="315" y="20" width="140" height="50" as="geometry"/>
                </mxCell>
                <mxCell id="1" value="It feels like: ..." style="text;strokeColor=none;align=left;fillColor=none;html=1;verticalAlign=middle;whiteSpace=wrap;rounded=0;fontSize=18;fontColor=#000000;" vertex="1" parent="sueAwKAaTNoMhfTQWeYg-2">
                    <mxGeometry x="15" y="220" width="530" height="30" as="geometry"/>
                </mxCell>
                <mxCell id="2" value="Looks like: ..." style="text;strokeColor=none;align=left;fillColor=none;html=1;verticalAlign=middle;whiteSpace=wrap;rounded=0;fontSize=18;fontColor=#000000;" vertex="1" parent="sueAwKAaTNoMhfTQWeYg-2">
                    <mxGeometry x="15" y="260" width="530" height="30" as="geometry"/>
                </mxCell>
                <mxCell id="3" value="" style="whiteSpace=wrap;html=1;fillColor=#FFFFFF;fontColor=#333333;strokeColor=#666666;" vertex="1" parent="sueAwKAaTNoMhfTQWeYg-2">
                    <mxGeometry x="60" y="110" width="70" height="70" as="geometry"/>
                </mxCell>
            </root>
        </mxGraphModel>
    </diagram>
    <diagram name="Page-2" id="q9IHcMU-pGxCGzKjIp-e">
        <mxGraphModel dx="1086" dy="751" grid="1" gridSize="10" guides="1" tooltips="1" connect="1" arrows="1" fold="1" page="1" pageScale="1" pageWidth="850" pageHeight="1100" background="#ffffff" math="0" shadow="0">
            <root>
                <mxCell id="_vuskze8fampd5jpOSTd-0"/>
                <mxCell id="_vuskze8fampd5jpOSTd-1" parent="_vuskze8fampd5jpOSTd-0"/>
                <mxCell id="_vuskze8fampd5jpOSTd-2" value="http://ics2o.mths.ca" style="swimlane;whiteSpace=wrap;html=1;strokeColor=#000000;strokeWidth=1;gradientColor=none;perimeterSpacing=0;glass=0;labelBackgroundColor=none;labelBorderColor=none;" vertex="1" parent="_vuskze8fampd5jpOSTd-1">
                    <mxGeometry x="40" y="40" width="760" height="610" as="geometry"/>
                </mxCell>
                <mxCell id="_vuskze8fampd5jpOSTd-3" value="" style="whiteSpace=wrap;html=1;glass=0;labelBackgroundColor=none;labelBorderColor=none;fontSize=22;fillColor=#66B2FF;strokeColor=#36393d;" vertex="1" parent="_vuskze8fampd5jpOSTd-2">
                    <mxGeometry y="20" width="760" height="590" as="geometry"/>
                </mxCell>
                <mxCell id="_vuskze8fampd5jpOSTd-4" value="" style="whiteSpace=wrap;html=1;fontSize=22;fillColor=#0073E6;strokeColor=none;gradientColor=none;" vertex="1" parent="_vuskze8fampd5jpOSTd-2">
                    <mxGeometry y="20" width="760" height="50" as="geometry"/>
                </mxCell>
                <mxCell id="_vuskze8fampd5jpOSTd-5" value="&lt;span style=&quot;font-size: 24px;&quot;&gt;The weather is:&lt;/span&gt;" style="text;html=1;align=center;verticalAlign=middle;resizable=0;points=[];autosize=1;fontSize=26;fontColor=#000000;" vertex="1" parent="_vuskze8fampd5jpOSTd-2">
                    <mxGeometry x="15" y="70" width="190" height="40" as="geometry"/>
                </mxCell>
                <mxCell id="_vuskze8fampd5jpOSTd-6" value="The temperature is: 23°C" style="text;strokeColor=none;align=left;fillColor=none;html=1;verticalAlign=middle;whiteSpace=wrap;rounded=0;fontSize=18;fontColor=#000000;" vertex="1" parent="_vuskze8fampd5jpOSTd-2">
                    <mxGeometry x="15" y="180" width="530" height="30" as="geometry"/>
                </mxCell>
                <mxCell id="_vuskze8fampd5jpOSTd-7" value="Weather" style="text;html=1;align=center;verticalAlign=middle;resizable=0;points=[];autosize=1;fontSize=30;fontColor=#000000;" vertex="1" parent="_vuskze8fampd5jpOSTd-2">
                    <mxGeometry x="315" y="20" width="140" height="50" as="geometry"/>
                </mxCell>
                <mxCell id="_vuskze8fampd5jpOSTd-8" value="It feels like: 22°C" style="text;strokeColor=none;align=left;fillColor=none;html=1;verticalAlign=middle;whiteSpace=wrap;rounded=0;fontSize=18;fontColor=#000000;" vertex="1" parent="_vuskze8fampd5jpOSTd-2">
                    <mxGeometry x="15" y="220" width="530" height="30" as="geometry"/>
                </mxCell>
                <mxCell id="_vuskze8fampd5jpOSTd-9" value="Looks like: Overcast" style="text;strokeColor=none;align=left;fillColor=none;html=1;verticalAlign=middle;whiteSpace=wrap;rounded=0;fontSize=18;fontColor=#000000;" vertex="1" parent="_vuskze8fampd5jpOSTd-2">
                    <mxGeometry x="15" y="260" width="530" height="30" as="geometry"/>
                </mxCell>
                <mxCell id="_vuskze8fampd5jpOSTd-10" value="" style="whiteSpace=wrap;html=1;fillColor=#FFFFFF;fontColor=#333333;strokeColor=#666666;" vertex="1" parent="_vuskze8fampd5jpOSTd-2">
                    <mxGeometry x="60" y="110" width="70" height="70" as="geometry"/>
                </mxCell>
                <mxCell id="skvQQKNe9NMkhXDQxapk-0" value="" style="ellipse;whiteSpace=wrap;html=1;strokeColor=none;fillColor=#B3B3B3;" vertex="1" parent="_vuskze8fampd5jpOSTd-2">
                    <mxGeometry x="66.66" y="135" width="30" height="30" as="geometry"/>
                </mxCell>
                <mxCell id="skvQQKNe9NMkhXDQxapk-12" value="" style="group" vertex="1" connectable="0" parent="_vuskze8fampd5jpOSTd-2">
                    <mxGeometry x="76.66" y="115" width="46.67" height="60" as="geometry"/>
                </mxCell>
                <mxCell id="skvQQKNe9NMkhXDQxapk-3" value="" style="ellipse;whiteSpace=wrap;html=1;strokeColor=none;fillColor=#B3B3B3;" vertex="1" parent="skvQQKNe9NMkhXDQxapk-12">
                    <mxGeometry width="33.33571428571428" height="33.33333333333333" as="geometry"/>
                </mxCell>
                <mxCell id="skvQQKNe9NMkhXDQxapk-2" value="" style="ellipse;whiteSpace=wrap;html=1;strokeColor=none;fillColor=#B3B3B3;" vertex="1" parent="skvQQKNe9NMkhXDQxapk-12">
                    <mxGeometry x="13.334285714285715" y="20" width="33.33571428571428" height="33.33333333333333" as="geometry"/>
                </mxCell>
                <mxCell id="skvQQKNe9NMkhXDQxapk-5" value="" style="ellipse;whiteSpace=wrap;html=1;strokeColor=none;fillColor=#B3B3B3;" vertex="1" parent="skvQQKNe9NMkhXDQxapk-12">
                    <mxGeometry y="26.666666666666664" width="33.33571428571428" height="33.33333333333333" as="geometry"/>
                </mxCell>
            </root>
        </mxGraphModel>
    </diagram>
</mxfile>